<?xml version="1.0" encoding="UTF-8" standalone="no"?>
<!-- Created with Inkscape (http://www.inkscape.org/) -->

<svg
   width="45"
   height="45"
   viewBox="0 0 11.906249 11.906249"
   version="1.1"
   id="svg1"
   xml:space="preserve"
   inkscape:version="1.4.2 (f4327f4, 2025-05-13)"
   sodipodi:docname="logo.svg"
   xmlns:inkscape="http://www.inkscape.org/namespaces/inkscape"
   xmlns:sodipodi="http://sodipodi.sourceforge.net/DTD/sodipodi-0.dtd"
   xmlns:xlink="http://www.w3.org/1999/xlink"
   xmlns="http://www.w3.org/2000/svg"
   xmlns:svg="http://www.w3.org/2000/svg"><sodipodi:namedview
     id="namedview1"
     pagecolor="#ffffff"
     bordercolor="#cccccc"
     borderopacity="1"
     inkscape:showpageshadow="0"
     inkscape:pageopacity="1"
     inkscape:pagecheckerboard="0"
     inkscape:deskcolor="#d1d1d1"
     inkscape:document-units="px"
     showguides="true"
     inkscape:zoom="6.965"
     inkscape:cx="3.7329505"
     inkscape:cy="23.61809"
     inkscape:window-width="1920"
     inkscape:window-height="1009"
     inkscape:window-x="-8"
     inkscape:window-y="-8"
     inkscape:window-maximized="1"
     inkscape:current-layer="layer1"
     showgrid="false" /><defs
     id="defs1"><linearGradient
       id="linearGradient62"
       inkscape:collect="always"><stop
         style="stop-color:#ff7800;stop-opacity:1;"
         offset="0"
         id="stop62" /><stop
         style="stop-color:#ff9100;stop-opacity:1;"
         offset="1"
         id="stop63" /></linearGradient><linearGradient
       inkscape:collect="always"
       xlink:href="#linearGradient62"
       id="linearGradient63"
       x1="2.0168314"
       y1="14.164737"
       x2="49.444901"
       y2="2.9927177"
       gradientUnits="userSpaceOnUse"
       gradientTransform="matrix(2.4999998,0,0,2.0833335,-1.1188762e-6,-7.8125e-7)" /></defs><g
     inkscape:label="Layer 1"
     inkscape:groupmode="layer"
     id="layer1"
     transform="translate(-9.6889408,-59.356388)"><rect
       style="fill:url(#linearGradient63);fill-opacity:1;stroke:none;stroke-width:3.53552;stroke-linecap:round;paint-order:stroke fill markers"
       id="rect1"
       width="132.29166"
       height="33.072914"
       x="-6.2353519e-07"
       y="-1.558838e-07" /><text
       xml:space="preserve"
       style="font-size:2.64584px;line-height:1.2;font-family:Academico;-inkscape-font-specification:Academico;text-align:center;letter-spacing:1.35599px;writing-mode:lr-tb;direction:ltr;text-anchor:middle;fill:#000000;fill-opacity:1;stroke:none;stroke-width:0.547675;stroke-linecap:round;stroke-dasharray:none;stroke-opacity:1;paint-order:stroke fill markers"
       x="103.92376"
       y="30.935425"
       id="text9"><tspan
         sodipodi:role="line"
         id="tspan9"
         style="font-style:normal;font-variant:normal;font-weight:650;font-stretch:normal;font-size:2.64584px;font-family:'Futura Std';-inkscape-font-specification:'Futura Std weight=650';letter-spacing:1.35599px;fill:#000000;fill-opacity:1;stroke:none;stroke-width:0.547675;stroke-dasharray:none;stroke-opacity:1"
         x="104.60175"
         y="30.935425">BY FINE STUDIO</tspan></text><text
       xml:space="preserve"
       style="font-size:18.6875px;line-height:1.2;font-family:Academico;-inkscape-font-specification:Academico;text-align:center;letter-spacing:0.975252px;writing-mode:lr-tb;direction:ltr;text-anchor:middle;fill:#000000;fill-opacity:1;stroke:none;stroke-width:0.430816;stroke-linecap:round;stroke-dasharray:none;stroke-opacity:1;paint-order:stroke fill markers"
       x="75.854431"
       y="23.310686"
       id="text1"><tspan
         sodipodi:role="line"
         id="tspan1"
         style="font-style:normal;font-variant:normal;font-weight:normal;font-stretch:normal;font-family:Brant;-inkscape-font-specification:Brant;fill:#000000;fill-opacity:1;stroke:none;stroke-width:0.430816;stroke-dasharray:none;stroke-opacity:1"
         x="76.342056"
         y="23.310686">Metaballs</tspan></text><g
       id="g63"
       transform="matrix(2.6457723,0,0,2.6457723,-3.8568674,-4.4643584)"
       style="fill:#f9f9f9"><path
         d="M 5.9250446,6.1778104 A 0.55925503,0.55925503 0 0 0 6.4843474,5.6185754 0.55925503,0.55925503 0 0 0 5.9250446,5.0592727 0.55925503,0.55925503 0 0 0 5.3658096,5.6185754 0.55925503,0.55925503 0 0 0 5.9250446,6.1778104 Z"
         style="fill:#f9f9f9;stroke:none;stroke-width:0.0179736;stroke-linecap:round;paint-order:stroke fill markers"
         id="path51" /><path
         d="M 8.7316484,6.1778104 A 0.55925503,0.55925503 0 0 0 9.2909511,5.6185754 0.55925503,0.55925503 0 0 0 8.7316484,5.0592727 0.55925503,0.55925503 0 0 0 8.1724134,5.6185754 0.55925503,0.55925503 0 0 0 8.7316484,6.1778104 Z"
         style="fill:#f9f9f9;fill-opacity:1;stroke:none;stroke-width:0.0179736;stroke-linecap:round;paint-order:stroke fill markers"
         id="path52" /><path
         d="M 9.5757153,5.6185754 A 0.55925503,0.55925503 0 0 0 10.135018,6.1778104 0.55925503,0.55925503 0 0 0 10.694253,5.6185754 0.55925503,0.55925503 0 0 0 10.135018,5.0592727 0.55925503,0.55925503 0 0 0 9.5757153,5.6185754 Z"
         style="fill:#f9f9f9;fill-opacity:1;stroke:none;stroke-width:0.0179736;stroke-linecap:round;paint-order:stroke fill markers"
         id="path53" /><path
         d="M 7.3283466,5.0592727 A 0.55925503,0.55925503 0 0 0 6.7691116,5.6185754 0.84405359,0.84405359 0 0 1 6.6266955,6.084424 0.84405359,0.84405359 0 0 1 6.3909609,6.3202265 0.84405359,0.84405359 0 0 1 5.9250446,6.4625747 0.55925503,0.55925503 0 0 0 5.3658096,7.0218774 0.55925503,0.55925503 0 0 0 5.9250446,7.5811123 0.55925503,0.55925503 0 0 0 6.4843474,7.0218774 0.84405359,0.84405359 0 0 1 6.6266955,6.5559611 0.84405359,0.84405359 0 0 1 6.8624303,6.3202265 0.84405359,0.84405359 0 0 1 7.3283466,6.1778104 0.55925503,0.55925503 0 0 0 7.8876492,5.6185754 0.55925503,0.55925503 0 0 0 7.3283466,5.0592727 Z"
         style="fill:#f9f9f9;fill-opacity:1;stroke:none;stroke-width:0.0179736;stroke-linecap:round;paint-order:stroke fill markers"
         id="path54" /><path
         d="M 7.3283466,6.4625747 A 0.55925503,0.55925503 0 0 0 6.7691116,7.0218774 0.84405359,0.84405359 0 0 1 6.6266955,7.4877936 0.84405359,0.84405359 0 0 1 6.3909609,7.7235284 0.84405359,0.84405359 0 0 1 5.9250446,7.8659443 0.55925503,0.55925503 0 0 0 5.3658096,8.4251793 0.55925503,0.55925503 0 0 0 5.9250446,8.9844141 0.55925503,0.55925503 0 0 0 6.4843474,8.4251793 0.84405359,0.84405359 0 0 1 6.6266955,7.9592629 0.84405359,0.84405359 0 0 1 6.8624303,7.7235284 0.84405359,0.84405359 0 0 1 7.3283466,7.5811123 0.55925503,0.55925503 0 0 0 7.8876492,7.0218774 0.55925503,0.55925503 0 0 0 7.3283466,6.4625747 Z"
         style="fill:#f9f9f9;fill-opacity:1;stroke:none;stroke-width:0.0179736;stroke-linecap:round;paint-order:stroke fill markers"
         id="path55" /><path
         d="M 8.7316484,6.4625747 A 0.55925503,0.55925503 0 0 0 8.1724134,7.0218774 0.84405359,0.84405359 0 0 1 8.0300651,7.4877936 0.84405359,0.84405359 0 0 1 7.7942628,7.7235284 0.84405359,0.84405359 0 0 1 7.3283466,7.8659443 0.55925503,0.55925503 0 0 0 6.7691116,8.4251793 0.55925503,0.55925503 0 0 0 7.3283466,8.9844141 0.55925503,0.55925503 0 0 0 7.8876492,8.4251793 0.84405359,0.84405359 0 0 1 8.0300651,7.9592629 0.84405359,0.84405359 0 0 1 8.2657999,7.7235284 0.84405359,0.84405359 0 0 1 8.7316484,7.5811123 0.55925503,0.55925503 0 0 0 9.2909511,7.0218774 0.55925503,0.55925503 0 0 0 8.7316484,6.4625747 Z"
         style="fill:#f9f9f9;fill-opacity:1;stroke:none;stroke-width:0.0179736;stroke-linecap:round;paint-order:stroke fill markers"
         id="path56" /><path
         d="M 10.135018,6.4625747 A 0.55925503,0.55925503 0 0 0 9.5757153,7.0218774 0.84405359,0.84405359 0 0 1 9.4333671,7.4877936 0.84405359,0.84405359 0 0 1 9.1975646,7.7235284 0.84405359,0.84405359 0 0 1 8.7316484,7.8659443 0.55925503,0.55925503 0 0 0 8.1724134,8.4251793 0.55925503,0.55925503 0 0 0 8.7316484,8.9844141 0.55925503,0.55925503 0 0 0 9.2909511,8.4251793 0.84405359,0.84405359 0 0 1 9.4333671,7.9592629 0.84405359,0.84405359 0 0 1 9.6691017,7.7235284 0.84405359,0.84405359 0 0 1 10.135018,7.5811123 0.55925503,0.55925503 0 0 0 10.694253,7.0218774 0.55925503,0.55925503 0 0 0 10.135018,6.4625747 Z"
         style="fill:#f9f9f9;fill-opacity:1;stroke:none;stroke-width:0.0179736;stroke-linecap:round;paint-order:stroke fill markers"
         id="path57" /><path
         d="M 6.4843474,9.828481 A 0.55925503,0.55925503 0 0 0 5.9250446,9.269246 0.55925503,0.55925503 0 0 0 5.3658096,9.828481 0.55925503,0.55925503 0 0 0 5.9250446,10.387716 0.55925503,0.55925503 0 0 0 6.4843474,9.828481 Z"
         style="fill:#f9f9f9;fill-opacity:1;stroke:none;stroke-width:0.0179736;stroke-linecap:round;paint-order:stroke fill markers"
         id="path58" /><path
         d="M 7.3283466,9.269246 A 0.55925503,0.55925503 0 0 0 6.7691116,9.828481 0.55925503,0.55925503 0 0 0 7.3283466,10.387716 0.55925503,0.55925503 0 0 0 7.8876492,9.828481 0.55925503,0.55925503 0 0 0 7.3283466,9.269246 Z"
         style="fill:#f9f9f9;fill-opacity:1;stroke:none;stroke-width:0.0179736;stroke-linecap:round;paint-order:stroke fill markers"
         id="path59" /><path
         d="M 10.135018,7.8659443 A 0.55925503,0.55925503 0 0 0 9.5757153,8.4251793 0.84405359,0.84405359 0 0 1 9.4333671,8.8910953 0.84405359,0.84405359 0 0 1 9.1975646,9.1268301 0.84405359,0.84405359 0 0 1 8.7316484,9.269246 0.55925503,0.55925503 0 0 0 8.1724134,9.828481 0.55925503,0.55925503 0 0 0 8.7316484,10.387716 0.55925503,0.55925503 0 0 0 9.2909511,9.828481 0.84405359,0.84405359 0 0 1 9.4333671,9.3625648 0.84405359,0.84405359 0 0 1 9.6691017,9.1268301 0.84405359,0.84405359 0 0 1 10.135018,8.9844141 0.55925503,0.55925503 0 0 0 10.694253,8.4251793 0.55925503,0.55925503 0 0 0 10.135018,7.8659443 Z"
         style="fill:#f9f9f9;fill-opacity:1;stroke:none;stroke-width:0.0179736;stroke-linecap:round;paint-order:stroke fill markers"
         id="path60" /><path
         d="M 10.135018,9.269246 A 0.55925503,0.55925503 0 0 0 9.5757153,9.828481 0.55925503,0.55925503 0 0 0 10.135018,10.387716 0.55925503,0.55925503 0 0 0 10.694253,9.828481 0.55925503,0.55925503 0 0 0 10.135018,9.269246 Z"
         style="fill:#f9f9f9;stroke:none;stroke-width:0.0179736;stroke-linecap:round;paint-order:stroke fill markers"
         id="path61" /></g><path
       style="fill:#ffffff;fill-opacity:1;stroke-width:0.0170572"
       d="m 13.009996,70.445327 c 0.609003,-0.07585 1.293074,-0.428997 1.94061,-1.001837 0.207635,-0.183684 0.451782,-0.427841 0.643379,-0.643408 0.502944,-0.565863 1.001724,-1.293938 1.456209,-2.125644 0.284804,-0.521189 0.55906,-1.097527 0.752729,-1.581824 0.04792,-0.119855 0.108241,-0.28181 0.108241,-0.29066 0,-0.0025 0.01331,-0.04675 0.02957,-0.09838 0.02912,-0.09242 0.08856,-0.290156 0.113591,-0.377875 l 0.01279,-0.04482 0.05855,-0.03102 c 0.254612,-0.134924 0.657895,-0.336122 0.93633,-0.467136 0.557271,-0.262218 1.090949,-0.486091 1.796193,-0.753486 0.182903,-0.06935 0.214835,-0.08209 0.206691,-0.08244 -0.0046,-1.92e-4 -0.200782,0.07293 -0.423318,0.157748 -0.7391,0.28171 -1.856483,0.720403 -2.384325,0.936104 -0.07649,0.03126 -0.139909,0.05683 -0.14092,0.05683 -0.0011,0 -1.02e-4,-0.0046 0.002,-0.01015 0.0068,-0.01809 0.06732,-0.273723 0.09266,-0.391752 0.245511,-1.143514 0.190415,-2.019832 -0.164273,-2.612809 -0.07607,-0.12717 -0.153064,-0.225452 -0.26175,-0.334098 -0.163793,-0.163739 -0.349089,-0.287157 -0.575391,-0.383247 -0.247176,-0.104954 -0.515974,-0.166133 -0.857658,-0.195208 -0.09075,-0.0077 -0.466128,-0.0076 -0.568644,5.2e-5 -0.355277,0.02682 -0.674898,0.08073 -1.012692,0.170793 -0.264122,0.07042 -0.473331,0.152148 -0.772053,0.3016 -0.811119,0.40581 -1.608005,1.035224 -2.128516,1.681192 -0.669292,0.830612 -0.867946,1.644226 -0.557015,2.281346 0.192978,0.395424 0.558797,0.682732 0.976187,0.766677 0.115808,0.0233 0.162884,0.02744 0.310133,0.02729 0.151243,-1.37e-4 0.220352,-0.0066 0.358788,-0.03397 0.406871,-0.08019 0.874978,-0.300971 1.3642,-0.64344 0.353997,-0.247807 0.690616,-0.532229 1.018856,-0.86087 0.438778,-0.439309 0.626977,-0.712259 0.614691,-0.891498 -0.0054,-0.0779 -0.04024,-0.112717 -0.116894,-0.116601 -0.04642,-0.0023 -0.08482,0.0037 -0.139049,0.02184 -0.122511,0.04104 -0.251508,0.119804 -0.584566,0.35691 -0.608092,0.432902 -0.93376,0.64539 -1.274936,0.831855 -0.64454,0.352264 -1.160829,0.470718 -1.40807,0.323054 -0.09081,-0.05423 -0.170944,-0.159276 -0.196355,-0.257392 -0.01029,-0.03974 -0.01383,-0.141604 -0.0068,-0.197311 0.02687,-0.214818 0.160128,-0.500749 0.377658,-0.810359 0.383478,-0.545804 1.021217,-1.181592 1.678007,-1.672874 0.300486,-0.224765 0.605561,-0.417724 0.81026,-0.51249 0.347928,-0.161072 0.739666,-0.272189 1.105112,-0.313463 0.227058,-0.02564 0.466462,-0.02304 0.654977,0.0071 0.624576,0.09989 1.026797,0.474652 1.184625,1.103755 0.0344,0.137124 0.05661,0.277656 0.07083,0.448264 0.0074,0.08901 0.0073,0.400622 -6.7e-5,0.505461 -0.02695,0.379626 -0.09039,0.756124 -0.20148,1.195957 -0.04435,0.175586 -0.08811,0.332835 -0.09433,0.338959 -0.0027,0.0027 -0.04061,0.01979 -0.08404,0.03787 -0.530627,0.220891 -1.172818,0.515136 -1.710444,0.783707 -1.640466,0.819499 -2.833841,1.64702 -3.559053,2.467953 -0.409033,0.463022 -0.683628,0.936526 -0.790896,1.3638 -0.118911,0.473648 -0.04819,0.890519 0.201674,1.18871 0.185071,0.220867 0.455913,0.354012 0.788312,0.387531 0.05988,0.0061 0.282887,0.002 0.349761,-0.0064 z m -0.13111,-0.715412 c -0.138145,-0.01352 -0.242394,-0.05295 -0.305524,-0.115592 -0.03513,-0.03485 -0.05354,-0.06723 -0.06652,-0.116975 -0.05466,-0.209572 0.05155,-0.562818 0.28771,-0.956766 0.295622,-0.49316 0.810248,-1.084989 1.44076,-1.656899 0.894332,-0.81121 2.044703,-1.612645 3.398296,-2.367505 0.09099,-0.05075 0.11677,-0.06412 0.113896,-0.05911 -0.0012,0.002 -0.01756,0.05145 -0.03642,0.109774 l -0.03429,0.106056 -0.146149,0.293348 c -0.223082,0.447765 -0.358019,0.702323 -0.555013,1.047027 -0.678353,1.186989 -1.410165,2.15011 -2.117551,2.786861 -0.347348,0.312663 -0.703103,0.554245 -1.05154,0.714065 -0.23682,0.108625 -0.48057,0.183539 -0.678523,0.208538 -0.06803,0.0086 -0.196786,0.01229 -0.24914,0.0071 z m 3.584098,-6.940013 c 0.03694,-0.01819 0.06832,-0.04963 0.08662,-0.0868 0.01346,-0.02732 0.01442,-0.03247 0.01442,-0.07687 0,-0.04439 -9.92e-4,-0.04954 -0.01442,-0.07687 -0.01871,-0.038 -0.05027,-0.06964 -0.08712,-0.08732 -0.0271,-0.01301 -0.03294,-0.01408 -0.07672,-0.01408 -0.04358,0 -0.04975,0.0011 -0.07673,0.01391 -0.03759,0.01781 -0.0698,0.05003 -0.08762,0.08763 -0.01279,0.02698 -0.01391,0.03316 -0.01391,0.07673 0,0.04358 0.0011,0.04975 0.01391,0.07673 0.0156,0.03292 0.04769,0.06771 0.07577,0.08215 0.03416,0.01756 0.05317,0.02158 0.09582,0.02028 0.03551,-0.0011 0.045,-0.0032 0.07,-0.0155 z"
       id="path1"
       sodipodi:nodetypes="sssssssscssssssscssssscssssscsssssssssssssssssscsssssssssssscssssscsssssssssssssssssss" /></g></svg>
