<?xml version="1.0" encoding="UTF-8" standalone="no"?>
<!-- Created with Inkscape (http://www.inkscape.org/) -->

<svg
   width="500"
   height="125"
   viewBox="0 0 132.29166 33.072914"
   version="1.1"
   id="svg1"
   xml:space="preserve"
   inkscape:version="1.4.2 (f4327f4, 2025-05-13)"
   sodipodi:docname="metaballs.svg"
   xmlns:inkscape="http://www.inkscape.org/namespaces/inkscape"
   xmlns:sodipodi="http://sodipodi.sourceforge.net/DTD/sodipodi-0.dtd"
   xmlns:xlink="http://www.w3.org/1999/xlink"
   xmlns="http://www.w3.org/2000/svg"
   xmlns:svg="http://www.w3.org/2000/svg"><sodipodi:namedview
     id="namedview1"
     pagecolor="#ffffff"
     bordercolor="#cccccc"
     borderopacity="1"
     inkscape:showpageshadow="0"
     inkscape:pageopacity="1"
     inkscape:pagecheckerboard="0"
     inkscape:deskcolor="#d1d1d1"
     inkscape:document-units="px"
     showguides="true"
     inkscape:zoom="1.74125"
     inkscape:cx="225.41278"
     inkscape:cy="-20.387653"
     inkscape:window-width="1920"
     inkscape:window-height="1009"
     inkscape:window-x="-8"
     inkscape:window-y="-8"
     inkscape:window-maximized="1"
     inkscape:current-layer="layer1" /><defs
     id="defs1"><linearGradient
       id="linearGradient62"
       inkscape:collect="always"><stop
         style="stop-color:#ff7800;stop-opacity:1;"
         offset="0"
         id="stop62" /><stop
         style="stop-color:#ff9100;stop-opacity:1;"
         offset="1"
         id="stop63" /></linearGradient><linearGradient
       inkscape:collect="always"
       xlink:href="#linearGradient62"
       id="linearGradient63"
       x1="2.0168314"
       y1="14.164737"
       x2="49.444901"
       y2="2.9927177"
       gradientUnits="userSpaceOnUse"
       gradientTransform="matrix(2.4999998,0,0,2.0833335,-1.1188762e-6,-7.8125e-7)" /></defs><g
     inkscape:label="Layer 1"
     inkscape:groupmode="layer"
     id="layer1"><rect
       style="fill:url(#linearGradient63);fill-opacity:1;stroke:none;stroke-width:3.53552;stroke-linecap:round;paint-order:stroke fill markers"
       id="rect1"
       width="132.29166"
       height="33.072914"
       x="-6.2353519e-07"
       y="-1.558838e-07" /><text
       xml:space="preserve"
       style="font-size:2.64584px;line-height:1.2;font-family:Academico;-inkscape-font-specification:Academico;text-align:center;letter-spacing:1.35599px;writing-mode:lr-tb;direction:ltr;text-anchor:middle;fill:#000000;fill-opacity:1;stroke:none;stroke-width:0.547675;stroke-linecap:round;stroke-dasharray:none;stroke-opacity:1;paint-order:stroke fill markers"
       x="103.92376"
       y="30.935425"
       id="text9"><tspan
         sodipodi:role="line"
         id="tspan9"
         style="font-style:normal;font-variant:normal;font-weight:650;font-stretch:normal;font-size:2.64584px;font-family:'Futura Std';-inkscape-font-specification:'Futura Std weight=650';letter-spacing:1.35599px;fill:#000000;fill-opacity:1;stroke:none;stroke-width:0.547675;stroke-dasharray:none;stroke-opacity:1"
         x="104.60175"
         y="30.935425">BY FINE STUDIO</tspan></text><text
       xml:space="preserve"
       style="font-size:18.6875px;line-height:1.2;font-family:Academico;-inkscape-font-specification:Academico;text-align:center;letter-spacing:0.975252px;writing-mode:lr-tb;direction:ltr;text-anchor:middle;fill:#000000;fill-opacity:1;stroke:none;stroke-width:0.430816;stroke-linecap:round;stroke-dasharray:none;stroke-opacity:1;paint-order:stroke fill markers"
       x="75.854431"
       y="23.310686"
       id="text1"><tspan
         sodipodi:role="line"
         id="tspan1"
         style="font-style:normal;font-variant:normal;font-weight:normal;font-stretch:normal;font-family:Brant;-inkscape-font-specification:Brant;fill:#000000;fill-opacity:1;stroke:none;stroke-width:0.430816;stroke-dasharray:none;stroke-opacity:1"
         x="76.342056"
         y="23.310686">Metaballs</tspan></text><g
       id="g63"
       transform="matrix(2.6457723,0,0,2.6457723,-3.8568674,-4.4643584)"
       style="fill:#f9f9f9"><path
         d="M 5.9250446,6.1778104 A 0.55925503,0.55925503 0 0 0 6.4843474,5.6185754 0.55925503,0.55925503 0 0 0 5.9250446,5.0592727 0.55925503,0.55925503 0 0 0 5.3658096,5.6185754 0.55925503,0.55925503 0 0 0 5.9250446,6.1778104 Z"
         style="fill:#f9f9f9;stroke:none;stroke-width:0.0179736;stroke-linecap:round;paint-order:stroke fill markers"
         id="path51" /><path
         d="M 8.7316484,6.1778104 A 0.55925503,0.55925503 0 0 0 9.2909511,5.6185754 0.55925503,0.55925503 0 0 0 8.7316484,5.0592727 0.55925503,0.55925503 0 0 0 8.1724134,5.6185754 0.55925503,0.55925503 0 0 0 8.7316484,6.1778104 Z"
         style="fill:#f9f9f9;fill-opacity:1;stroke:none;stroke-width:0.0179736;stroke-linecap:round;paint-order:stroke fill markers"
         id="path52" /><path
         d="M 9.5757153,5.6185754 A 0.55925503,0.55925503 0 0 0 10.135018,6.1778104 0.55925503,0.55925503 0 0 0 10.694253,5.6185754 0.55925503,0.55925503 0 0 0 10.135018,5.0592727 0.55925503,0.55925503 0 0 0 9.5757153,5.6185754 Z"
         style="fill:#f9f9f9;fill-opacity:1;stroke:none;stroke-width:0.0179736;stroke-linecap:round;paint-order:stroke fill markers"
         id="path53" /><path
         d="M 7.3283466,5.0592727 A 0.55925503,0.55925503 0 0 0 6.7691116,5.6185754 0.84405359,0.84405359 0 0 1 6.6266955,6.084424 0.84405359,0.84405359 0 0 1 6.3909609,6.3202265 0.84405359,0.84405359 0 0 1 5.9250446,6.4625747 0.55925503,0.55925503 0 0 0 5.3658096,7.0218774 0.55925503,0.55925503 0 0 0 5.9250446,7.5811123 0.55925503,0.55925503 0 0 0 6.4843474,7.0218774 0.84405359,0.84405359 0 0 1 6.6266955,6.5559611 0.84405359,0.84405359 0 0 1 6.8624303,6.3202265 0.84405359,0.84405359 0 0 1 7.3283466,6.1778104 0.55925503,0.55925503 0 0 0 7.8876492,5.6185754 0.55925503,0.55925503 0 0 0 7.3283466,5.0592727 Z"
         style="fill:#f9f9f9;fill-opacity:1;stroke:none;stroke-width:0.0179736;stroke-linecap:round;paint-order:stroke fill markers"
         id="path54" /><path
         d="M 7.3283466,6.4625747 A 0.55925503,0.55925503 0 0 0 6.7691116,7.0218774 0.84405359,0.84405359 0 0 1 6.6266955,7.4877936 0.84405359,0.84405359 0 0 1 6.3909609,7.7235284 0.84405359,0.84405359 0 0 1 5.9250446,7.8659443 0.55925503,0.55925503 0 0 0 5.3658096,8.4251793 0.55925503,0.55925503 0 0 0 5.9250446,8.9844141 0.55925503,0.55925503 0 0 0 6.4843474,8.4251793 0.84405359,0.84405359 0 0 1 6.6266955,7.9592629 0.84405359,0.84405359 0 0 1 6.8624303,7.7235284 0.84405359,0.84405359 0 0 1 7.3283466,7.5811123 0.55925503,0.55925503 0 0 0 7.8876492,7.0218774 0.55925503,0.55925503 0 0 0 7.3283466,6.4625747 Z"
         style="fill:#f9f9f9;fill-opacity:1;stroke:none;stroke-width:0.0179736;stroke-linecap:round;paint-order:stroke fill markers"
         id="path55" /><path
         d="M 8.7316484,6.4625747 A 0.55925503,0.55925503 0 0 0 8.1724134,7.0218774 0.84405359,0.84405359 0 0 1 8.0300651,7.4877936 0.84405359,0.84405359 0 0 1 7.7942628,7.7235284 0.84405359,0.84405359 0 0 1 7.3283466,7.8659443 0.55925503,0.55925503 0 0 0 6.7691116,8.4251793 0.55925503,0.55925503 0 0 0 7.3283466,8.9844141 0.55925503,0.55925503 0 0 0 7.8876492,8.4251793 0.84405359,0.84405359 0 0 1 8.0300651,7.9592629 0.84405359,0.84405359 0 0 1 8.2657999,7.7235284 0.84405359,0.84405359 0 0 1 8.7316484,7.5811123 0.55925503,0.55925503 0 0 0 9.2909511,7.0218774 0.55925503,0.55925503 0 0 0 8.7316484,6.4625747 Z"
         style="fill:#f9f9f9;fill-opacity:1;stroke:none;stroke-width:0.0179736;stroke-linecap:round;paint-order:stroke fill markers"
         id="path56" /><path
         d="M 10.135018,6.4625747 A 0.55925503,0.55925503 0 0 0 9.5757153,7.0218774 0.84405359,0.84405359 0 0 1 9.4333671,7.4877936 0.84405359,0.84405359 0 0 1 9.1975646,7.7235284 0.84405359,0.84405359 0 0 1 8.7316484,7.8659443 0.55925503,0.55925503 0 0 0 8.1724134,8.4251793 0.55925503,0.55925503 0 0 0 8.7316484,8.9844141 0.55925503,0.55925503 0 0 0 9.2909511,8.4251793 0.84405359,0.84405359 0 0 1 9.4333671,7.9592629 0.84405359,0.84405359 0 0 1 9.6691017,7.7235284 0.84405359,0.84405359 0 0 1 10.135018,7.5811123 0.55925503,0.55925503 0 0 0 10.694253,7.0218774 0.55925503,0.55925503 0 0 0 10.135018,6.4625747 Z"
         style="fill:#f9f9f9;fill-opacity:1;stroke:none;stroke-width:0.0179736;stroke-linecap:round;paint-order:stroke fill markers"
         id="path57" /><path
         d="M 6.4843474,9.828481 A 0.55925503,0.55925503 0 0 0 5.9250446,9.269246 0.55925503,0.55925503 0 0 0 5.3658096,9.828481 0.55925503,0.55925503 0 0 0 5.9250446,10.387716 0.55925503,0.55925503 0 0 0 6.4843474,9.828481 Z"
         style="fill:#f9f9f9;fill-opacity:1;stroke:none;stroke-width:0.0179736;stroke-linecap:round;paint-order:stroke fill markers"
         id="path58" /><path
         d="M 7.3283466,9.269246 A 0.55925503,0.55925503 0 0 0 6.7691116,9.828481 0.55925503,0.55925503 0 0 0 7.3283466,10.387716 0.55925503,0.55925503 0 0 0 7.8876492,9.828481 0.55925503,0.55925503 0 0 0 7.3283466,9.269246 Z"
         style="fill:#f9f9f9;fill-opacity:1;stroke:none;stroke-width:0.0179736;stroke-linecap:round;paint-order:stroke fill markers"
         id="path59" /><path
         d="M 10.135018,7.8659443 A 0.55925503,0.55925503 0 0 0 9.5757153,8.4251793 0.84405359,0.84405359 0 0 1 9.4333671,8.8910953 0.84405359,0.84405359 0 0 1 9.1975646,9.1268301 0.84405359,0.84405359 0 0 1 8.7316484,9.269246 0.55925503,0.55925503 0 0 0 8.1724134,9.828481 0.55925503,0.55925503 0 0 0 8.7316484,10.387716 0.55925503,0.55925503 0 0 0 9.2909511,9.828481 0.84405359,0.84405359 0 0 1 9.4333671,9.3625648 0.84405359,0.84405359 0 0 1 9.6691017,9.1268301 0.84405359,0.84405359 0 0 1 10.135018,8.9844141 0.55925503,0.55925503 0 0 0 10.694253,8.4251793 0.55925503,0.55925503 0 0 0 10.135018,7.8659443 Z"
         style="fill:#f9f9f9;fill-opacity:1;stroke:none;stroke-width:0.0179736;stroke-linecap:round;paint-order:stroke fill markers"
         id="path60" /><path
         d="M 10.135018,9.269246 A 0.55925503,0.55925503 0 0 0 9.5757153,9.828481 0.55925503,0.55925503 0 0 0 10.135018,10.387716 0.55925503,0.55925503 0 0 0 10.694253,9.828481 0.55925503,0.55925503 0 0 0 10.135018,9.269246 Z"
         style="fill:#f9f9f9;stroke:none;stroke-width:0.0179736;stroke-linecap:round;paint-order:stroke fill markers"
         id="path61" /></g></g></svg>
